<svg xmlns="http://www.w3.org/2000/svg" width="128" height="128" viewBox="0 0 128 128">
  <g fill="none" fill-rule="evenodd" transform="translate(17 23)">
    <text fill="#000" font-family="Geometria-Bold, Geometria" font-size="10" font-weight="bold">
      <tspan x="6.81" y="67">Upgrade Gallery</tspan> <tspan x="13.34" y="79" font-family="Geometria" font-weight="normal">for Gutenberg</tspan>
    </text>
    <g transform="translate(26)">
      <path fill="#B3B3B3" d="M38,19 L5,19 L5,3 C5,2.44771525 5.43454715,2 5.97058824,2 L37.0294118,2 C37.5654528,2 38,2.44771525 38,3 L38,19 Z"/>
      <path fill="#E6E6E6" d="M41.0454545,6 L1.95454545,6 C0.875079807,6 0,6.8954305 0,8 L0,40 C0,41.1045695 0.875079807,42 1.95454545,42 L41.0454545,42 C42.1249202,42 43,41.1045695 43,40 L43,8 C43,6.8954305 42.1249202,6 41.0454545,6 Z"/>
      <path fill="#FFF" d="M39.0263158,39 L3.97368421,39 C3.43593327,39 3,38.5522847 3,38 L3,10 C3,9.44771525 3.43593327,9 3.97368421,9 L39.0263158,9 C39.5640667,9 40,9.44771525 40,10 L40,38 C40,38.5522847 39.5640667,39 39.0263158,39 Z"/>
      <circle cx="19" cy="17" r="3" fill="#EFD358"/>
      <path fill="#4DA34D" d="M24.0495505,34.0009499 L15.5326187,25.2939496 C15.3410377,25.0951718 15.0761486,24.9887141 14.8035733,25.0009496 C14.5319354,25.0117614 14.2769733,25.1378589 14.0999369,25.3489496 L8.23630055,32.3489496 C7.9871882,32.6453824 7.92974514,33.0631799 8.0892564,33.4184378 C8.24876766,33.7736958 8.59597669,34.0012551 8.97805055,34.0009496 L24.0495505,34.0009499 Z"/>
      <path fill="#72C472" d="M35.9757045,32.4132204 L28.1575227,21.4132204 C27.9769915,21.1582966 27.6896819,21.0052475 27.3820582,21.0001323 C27.0744346,20.9950172 26.7824169,21.1384333 26.5938864,21.3872204 L17,34.0012204 L35.1850909,34.0012204 C35.5526546,34.0012727 35.8891615,33.7902833 36.0560112,33.4551546 C36.222861,33.1200258 36.191832,32.7174424 35.9757045,32.4132204 L35.9757045,32.4132204 Z"/>
    </g>
  </g>
</svg>
